<svg width="24" height="26" viewBox="0 0 24 26" fill="none" xmlns="http://www.w3.org/2000/svg">
<path d="M19.312 20.656C19.824 20.8 20.212 21.048 20.476 21.4C20.74 21.744 20.872 22.18 20.872 22.708C20.872 23.444 20.612 24.024 20.092 24.448C19.58 24.872 18.884 25.084 18.004 25.084C17.484 25.084 16.984 25 16.504 24.832C16.032 24.664 15.632 24.432 15.304 24.136C15.144 24.008 15.064 23.848 15.064 23.656C15.064 23.512 15.104 23.392 15.184 23.296C15.264 23.192 15.36 23.14 15.472 23.14C15.592 23.14 15.728 23.192 15.88 23.296C16.224 23.552 16.56 23.748 16.888 23.884C17.224 24.012 17.584 24.076 17.968 24.076C19.104 24.076 19.672 23.592 19.672 22.624C19.672 22.152 19.52 21.8 19.216 21.568C18.92 21.328 18.468 21.208 17.86 21.208H17.2C17.048 21.208 16.928 21.16 16.84 21.064C16.752 20.96 16.708 20.84 16.708 20.704C16.708 20.576 16.752 20.464 16.84 20.368C16.928 20.264 17.048 20.212 17.2 20.212H17.668C18.252 20.212 18.696 20.092 19 19.852C19.312 19.604 19.468 19.244 19.468 18.772C19.468 18.356 19.34 18.032 19.084 17.8C18.836 17.568 18.484 17.452 18.028 17.452C17.356 17.452 16.684 17.712 16.012 18.232C15.86 18.336 15.724 18.388 15.604 18.388C15.492 18.388 15.396 18.34 15.316 18.244C15.236 18.14 15.196 18.016 15.196 17.872C15.196 17.68 15.276 17.52 15.436 17.392C15.764 17.096 16.16 16.864 16.624 16.696C17.096 16.528 17.58 16.444 18.076 16.444C18.868 16.444 19.5 16.644 19.972 17.044C20.444 17.444 20.676 17.98 20.668 18.652C20.668 19.116 20.548 19.528 20.308 19.888C20.068 20.24 19.736 20.496 19.312 20.656Z" fill="#20242C"/>
<path d="M5 5.5C5 6.33 5.67 7 6.5 7H10.5V17.5C10.5 18.33 11.17 19 12 19C12.83 19 13.5 18.33 13.5 17.5V7H17.5C18.33 7 19 6.33 19 5.5C19 4.67 18.33 4 17.5 4H6.5C5.67 4 5 4.67 5 5.5Z" fill="#20242C"/>
</svg>
