<svg width="24" height="26" viewBox="0 0 24 26" fill="none" xmlns="http://www.w3.org/2000/svg">
<path d="M20.536 16.54C20.712 16.54 20.844 16.588 20.932 16.684C21.028 16.78 21.076 16.904 21.076 17.056C21.076 17.2 21.032 17.352 20.944 17.512L17.02 24.76C16.892 24.984 16.716 25.096 16.492 25.096C16.34 25.096 16.2 25.044 16.072 24.94C15.952 24.828 15.892 24.692 15.892 24.532C15.892 24.436 15.924 24.324 15.988 24.196L19.6 17.56H15.7C15.508 17.56 15.364 17.516 15.268 17.428C15.172 17.34 15.124 17.216 15.124 17.056C15.124 16.712 15.316 16.54 15.7 16.54H20.536Z" fill="#20242C"/>
<path d="M5 5.5C5 6.33 5.67 7 6.5 7H10.5V17.5C10.5 18.33 11.17 19 12 19C12.83 19 13.5 18.33 13.5 17.5V7H17.5C18.33 7 19 6.33 19 5.5C19 4.67 18.33 4 17.5 4H6.5C5.67 4 5 4.67 5 5.5Z" fill="#20242C"/>
</svg>
